<?xml version="1.0" encoding="UTF-8" standalone="no"?><svg xmlns="http://www.w3.org/2000/svg" xmlns:xlink="http://www.w3.org/1999/xlink" contentScriptType="application/ecmascript" contentStyleType="text/css" height="416px" preserveAspectRatio="none" style="width:800px;height:416px;" version="1.1" viewBox="0 0 800 416" width="800px" zoomAndPan="magnify"><defs><filter height="300%" id="f14wiwz572om28" width="300%" x="-1" y="-1"><feGaussianBlur result="blurOut" stdDeviation="2.0"/><feColorMatrix in="blurOut" result="blurOut2" type="matrix" values="0 0 0 0 0 0 0 0 0 0 0 0 0 0 0 0 0 0 .4 0"/><feOffset dx="4.0" dy="4.0" in="blurOut2" result="blurOut3"/><feBlend in="SourceGraphic" in2="blurOut3" mode="normal"/></filter></defs><g><!--class SimpleFilter--><rect fill="#FEFECE" filter="url(#f14wiwz572om28)" height="60.8047" id="SimpleFilter" style="stroke: #A80036; stroke-width: 1.5;" width="188" x="25" y="14.5"/><ellipse cx="78.75" cy="30.5" fill="#B4A7E5" rx="11" ry="11" style="stroke: #A80036; stroke-width: 1.0;"/><path d="M74.6719,26.2656 L74.6719,24.1094 L82.0625,24.1094 L82.0625,26.2656 L79.5938,26.2656 L79.5938,34.3438 L82.0625,34.3438 L82.0625,36.5 L74.6719,36.5 L74.6719,34.3438 L77.1406,34.3438 L77.1406,26.2656 L74.6719,26.2656 Z "/><text fill="#000000" font-family="sans-serif" font-size="12" font-style="italic" lengthAdjust="spacingAndGlyphs" textLength="72" x="99.25" y="34.6543">SimpleFilter</text><line style="stroke: #A80036; stroke-width: 1.5;" x1="26" x2="212" y1="46.5" y2="46.5"/><line style="stroke: #A80036; stroke-width: 1.5;" x1="26" x2="212" y1="54.5" y2="54.5"/><ellipse cx="36" cy="66.4023" fill="#84BE84" rx="3" ry="3" style="stroke: #038048; stroke-width: 1.0;"/><text fill="#000000" font-family="sans-serif" font-size="11" lengthAdjust="spacingAndGlyphs" textLength="162" x="45" y="68.7104">boolean include(Object item)</text><!--class Iterable--><rect fill="#FEFECE" filter="url(#f14wiwz572om28)" height="60.8047" id="Iterable" style="stroke: #A80036; stroke-width: 1.5;" width="122" x="267" y="155.5"/><ellipse cx="300.45" cy="171.5" fill="#B4A7E5" rx="11" ry="11" style="stroke: #A80036; stroke-width: 1.0;"/><path d="M296.3719,167.2656 L296.3719,165.1094 L303.7625,165.1094 L303.7625,167.2656 L301.2938,167.2656 L301.2938,175.3438 L303.7625,175.3438 L303.7625,177.5 L296.3719,177.5 L296.3719,175.3438 L298.8406,175.3438 L298.8406,167.2656 L296.3719,167.2656 Z "/><text fill="#000000" font-family="sans-serif" font-size="12" font-style="italic" lengthAdjust="spacingAndGlyphs" textLength="49" x="318.55" y="175.6543">Iterable</text><line style="stroke: #A80036; stroke-width: 1.5;" x1="268" x2="388" y1="187.5" y2="187.5"/><line style="stroke: #A80036; stroke-width: 1.5;" x1="268" x2="388" y1="195.5" y2="195.5"/><ellipse cx="278" cy="207.4023" fill="#84BE84" rx="3" ry="3" style="stroke: #038048; stroke-width: 1.0;"/><text fill="#000000" font-family="sans-serif" font-size="11" lengthAdjust="spacingAndGlyphs" textLength="96" x="287" y="209.7104">Iterator iterator()</text><!--class Iterator--><rect fill="#FEFECE" filter="url(#f14wiwz572om28)" height="73.6094" id="Iterator" style="stroke: #A80036; stroke-width: 1.5;" width="129" x="437.5" y="8"/><ellipse cx="474.55" cy="24" fill="#B4A7E5" rx="11" ry="11" style="stroke: #A80036; stroke-width: 1.0;"/><path d="M470.4719,19.7656 L470.4719,17.6094 L477.8625,17.6094 L477.8625,19.7656 L475.3938,19.7656 L475.3938,27.8438 L477.8625,27.8438 L477.8625,30 L470.4719,30 L470.4719,27.8438 L472.9406,27.8438 L472.9406,19.7656 L470.4719,19.7656 Z "/><text fill="#000000" font-family="sans-serif" font-size="12" font-style="italic" lengthAdjust="spacingAndGlyphs" textLength="48" x="493.45" y="28.1543">Iterator</text><line style="stroke: #A80036; stroke-width: 1.5;" x1="438.5" x2="565.5" y1="40" y2="40"/><line style="stroke: #A80036; stroke-width: 1.5;" x1="438.5" x2="565.5" y1="48" y2="48"/><ellipse cx="448.5" cy="59.9023" fill="#84BE84" rx="3" ry="3" style="stroke: #038048; stroke-width: 1.0;"/><text fill="#000000" font-family="sans-serif" font-size="11" lengthAdjust="spacingAndGlyphs" textLength="103" x="457.5" y="62.2104">boolean hasNext()</text><ellipse cx="448.5" cy="72.707" fill="#84BE84" rx="3" ry="3" style="stroke: #038048; stroke-width: 1.0;"/><text fill="#000000" font-family="sans-serif" font-size="11" lengthAdjust="spacingAndGlyphs" textLength="72" x="457.5" y="75.0151">Object next()</text><!--class SimpleList--><rect fill="#FEFECE" filter="url(#f14wiwz572om28)" height="86.4141" id="SimpleList" style="stroke: #A80036; stroke-width: 1.5;" width="226" x="6" y="143"/><ellipse cx="83.75" cy="159" fill="#B4A7E5" rx="11" ry="11" style="stroke: #A80036; stroke-width: 1.0;"/><path d="M79.6719,154.7656 L79.6719,152.6094 L87.0625,152.6094 L87.0625,154.7656 L84.5938,154.7656 L84.5938,162.8438 L87.0625,162.8438 L87.0625,165 L79.6719,165 L79.6719,162.8438 L82.1406,162.8438 L82.1406,154.7656 L79.6719,154.7656 Z "/><text fill="#000000" font-family="sans-serif" font-size="12" font-style="italic" lengthAdjust="spacingAndGlyphs" textLength="62" x="104.25" y="163.1543">SimpleList</text><line style="stroke: #A80036; stroke-width: 1.5;" x1="7" x2="231" y1="175" y2="175"/><line style="stroke: #A80036; stroke-width: 1.5;" x1="7" x2="231" y1="183" y2="183"/><ellipse cx="17" cy="194.9023" fill="#84BE84" rx="3" ry="3" style="stroke: #038048; stroke-width: 1.0;"/><text fill="#000000" font-family="sans-serif" font-size="11" lengthAdjust="spacingAndGlyphs" textLength="121" x="26" y="197.2104">void add(Object item)</text><ellipse cx="17" cy="207.707" fill="#84BE84" rx="3" ry="3" style="stroke: #038048; stroke-width: 1.0;"/><text fill="#000000" font-family="sans-serif" font-size="11" lengthAdjust="spacingAndGlyphs" textLength="48" x="26" y="210.0151">int size()</text><ellipse cx="17" cy="220.5117" fill="#84BE84" rx="3" ry="3" style="stroke: #038048; stroke-width: 1.0;"/><text fill="#000000" font-family="sans-serif" font-size="11" lengthAdjust="spacingAndGlyphs" textLength="200" x="26" y="222.8198">SimpleList filter(SimpleFilter filter)_</text><!--class SimpleListImpl--><rect fill="#FEFECE" filter="url(#f14wiwz572om28)" height="99.2188" id="SimpleListImpl" style="stroke: #A80036; stroke-width: 1.5;" width="220" x="392" y="306"/><ellipse cx="454.25" cy="322" fill="#ADD1B2" rx="11" ry="11" style="stroke: #A80036; stroke-width: 1.0;"/><path d="M457.2188,327.6406 Q456.6406,327.9375 456,328.0859 Q455.3594,328.2344 454.6563,328.2344 Q452.1563,328.2344 450.8359,326.5859 Q449.5156,324.9375 449.5156,321.8125 Q449.5156,318.6875 450.8359,317.0313 Q452.1563,315.375 454.6563,315.375 Q455.3594,315.375 456.0078,315.5313 Q456.6563,315.6875 457.2188,315.9844 L457.2188,318.7031 Q456.5938,318.125 456,317.8516 Q455.4063,317.5781 454.7813,317.5781 Q453.4375,317.5781 452.75,318.6484 Q452.0625,319.7188 452.0625,321.8125 Q452.0625,323.9063 452.75,324.9766 Q453.4375,326.0469 454.7813,326.0469 Q455.4063,326.0469 456,325.7734 Q456.5938,325.5 457.2188,324.9219 L457.2188,327.6406 Z "/><text fill="#000000" font-family="sans-serif" font-size="12" lengthAdjust="spacingAndGlyphs" textLength="87" x="474.75" y="326.1543">SimpleListImpl</text><line style="stroke: #A80036; stroke-width: 1.5;" x1="393" x2="611" y1="338" y2="338"/><rect fill="none" height="6" style="stroke: #C82930; stroke-width: 1.0;" width="6" x="400" y="346.9023"/><text fill="#000000" font-family="sans-serif" font-size="11" lengthAdjust="spacingAndGlyphs" textLength="86" x="412" y="352.2104">head : Element</text><line style="stroke: #A80036; stroke-width: 1.5;" x1="393" x2="611" y1="358.8047" y2="358.8047"/><ellipse cx="403" cy="370.707" fill="#84BE84" rx="3" ry="3" style="stroke: #038048; stroke-width: 1.0;"/><text fill="#000000" font-family="sans-serif" font-size="11" lengthAdjust="spacingAndGlyphs" textLength="121" x="412" y="373.0151">void add(Object item)</text><ellipse cx="403" cy="383.5117" fill="#84BE84" rx="3" ry="3" style="stroke: #038048; stroke-width: 1.0;"/><text fill="#000000" font-family="sans-serif" font-size="11" lengthAdjust="spacingAndGlyphs" textLength="48" x="412" y="385.8198">int size()</text><ellipse cx="403" cy="396.3164" fill="#84BE84" rx="3" ry="3" style="stroke: #038048; stroke-width: 1.0;"/><text fill="#000000" font-family="sans-serif" font-size="11" lengthAdjust="spacingAndGlyphs" textLength="194" x="412" y="398.6245">SimpleList filter(SimpleFilter filter)</text><!--class SimpleIteratorImpl--><rect fill="#FEFECE" filter="url(#f14wiwz572om28)" height="48" id="SimpleIteratorImpl" style="stroke: #A80036; stroke-width: 1.5;" width="156" x="424" y="162"/><ellipse cx="439" cy="178" fill="#ADD1B2" rx="11" ry="11" style="stroke: #A80036; stroke-width: 1.0;"/><path d="M441.9688,183.6406 Q441.3906,183.9375 440.75,184.0859 Q440.1094,184.2344 439.4063,184.2344 Q436.9063,184.2344 435.5859,182.5859 Q434.2656,180.9375 434.2656,177.8125 Q434.2656,174.6875 435.5859,173.0313 Q436.9063,171.375 439.4063,171.375 Q440.1094,171.375 440.7578,171.5313 Q441.4063,171.6875 441.9688,171.9844 L441.9688,174.7031 Q441.3438,174.125 440.75,173.8516 Q440.1563,173.5781 439.5313,173.5781 Q438.1875,173.5781 437.5,174.6484 Q436.8125,175.7188 436.8125,177.8125 Q436.8125,179.9063 437.5,180.9766 Q438.1875,182.0469 439.5313,182.0469 Q440.1563,182.0469 440.75,181.7734 Q441.3438,181.5 441.9688,180.9219 L441.9688,183.6406 Z "/><rect fill="#F24D5C" height="6" style="stroke: #C82930; stroke-width: 1.0;" width="6" x="455" y="174.5"/><text fill="#000000" font-family="sans-serif" font-size="12" lengthAdjust="spacingAndGlyphs" textLength="113" x="464" y="182.1543">SimpleIteratorImpl</text><line style="stroke: #A80036; stroke-width: 1.5;" x1="425" x2="579" y1="194" y2="194"/><line style="stroke: #A80036; stroke-width: 1.5;" x1="425" x2="579" y1="202" y2="202"/><!--class Element--><rect fill="#FEFECE" filter="url(#f14wiwz572om28)" height="73.6094" id="Element" style="stroke: #A80036; stroke-width: 1.5;" width="104" x="615" y="149"/><ellipse cx="634.5" cy="165" fill="#ADD1B2" rx="11" ry="11" style="stroke: #A80036; stroke-width: 1.0;"/><path d="M637.4688,170.6406 Q636.8906,170.9375 636.25,171.0859 Q635.6094,171.2344 634.9063,171.2344 Q632.4063,171.2344 631.0859,169.5859 Q629.7656,167.9375 629.7656,164.8125 Q629.7656,161.6875 631.0859,160.0313 Q632.4063,158.375 634.9063,158.375 Q635.6094,158.375 636.2578,158.5313 Q636.9063,158.6875 637.4688,158.9844 L637.4688,161.7031 Q636.8438,161.125 636.25,160.8516 Q635.6563,160.5781 635.0313,160.5781 Q633.6875,160.5781 633,161.6484 Q632.3125,162.7188 632.3125,164.8125 Q632.3125,166.9063 633,167.9766 Q633.6875,169.0469 635.0313,169.0469 Q635.6563,169.0469 636.25,168.7734 Q636.8438,168.5 637.4688,167.9219 L637.4688,170.6406 Z "/><rect fill="#F24D5C" height="6" style="stroke: #C82930; stroke-width: 1.0;" width="6" x="651.5" y="161.5"/><text fill="#000000" font-family="sans-serif" font-size="12" lengthAdjust="spacingAndGlyphs" textLength="51" x="660.5" y="169.1543">Element</text><line style="stroke: #A80036; stroke-width: 1.5;" x1="616" x2="718" y1="181" y2="181"/><rect fill="none" height="6" style="stroke: #C82930; stroke-width: 1.0;" width="6" x="623" y="189.9023"/><text fill="#000000" font-family="sans-serif" font-size="11" lengthAdjust="spacingAndGlyphs" textLength="69" x="635" y="195.2104">item: Object</text><rect fill="none" height="6" style="stroke: #C82930; stroke-width: 1.0;" width="6" x="623" y="202.707"/><text fill="#000000" font-family="sans-serif" font-size="11" lengthAdjust="spacingAndGlyphs" textLength="78" x="635" y="208.0151">next: Element</text><line style="stroke: #A80036; stroke-width: 1.5;" x1="616" x2="718" y1="214.6094" y2="214.6094"/><!--link SimpleList to SimpleListImpl--><path d="M235.2532,237.4489 C284.9417,259.4389 342.6672,284.9859 391.6842,306.6788 " fill="none" id="SimpleList-SimpleListImpl" style="stroke: #A80036; stroke-width: 1.0; stroke-dasharray: 7.0,7.0;"/><polygon fill="none" points="232.0942,243.7057,216.6381,229.2106,237.76,230.9034,232.0942,243.7057" style="stroke: #A80036; stroke-width: 1.0;"/><!--link Iterable to SimpleListImpl--><path d="M373.8509,230.6651 C397.5428,253.7442 426.5243,281.9762 450.9296,305.7504 " fill="none" id="Iterable-SimpleListImpl" style="stroke: #A80036; stroke-width: 1.0; stroke-dasharray: 7.0,7.0;"/><polygon fill="none" points="368.9518,235.665,359.5101,216.6952,378.7208,225.6367,368.9518,235.665" style="stroke: #A80036; stroke-width: 1.0;"/><!--link Iterator to SimpleIteratorImpl--><path d="M502,102.3224 C502,123.0049 502,145.2564 502,161.6107 " fill="none" id="Iterator-SimpleIteratorImpl" style="stroke: #A80036; stroke-width: 1.0; stroke-dasharray: 7.0,7.0;"/><polygon fill="none" points="495.0001,102.0461,502,82.0461,509.0001,102.0461,495.0001,102.0461" style="stroke: #A80036; stroke-width: 1.0;"/><!--link Element to SimpleListImpl--><path d="M629.3152,223.3418 C617.9124,234.7328 605.3945,247.3302 594,259 C582.3885,270.8921 570.0528,283.7049 558.3127,295.9865 " fill="none" id="Element-SimpleListImpl" style="stroke: #A80036; stroke-width: 1.0;"/><polygon fill="#A80036" points="549.0503,305.6944,556.0862,304.1146,557.3341,297.0123,550.2982,298.5921,549.0503,305.6944" style="stroke: #A80036; stroke-width: 1.0;"/><text fill="#000000" font-family="sans-serif" font-size="13" lengthAdjust="spacingAndGlyphs" textLength="32" x="595" y="272.0669">head</text><!--link Element to SimpleListImpl--><path d="M658.5161,223.0326 C653.1176,240.5165 644.69,260.8238 632,276 C625.9305,283.2586 619.0195,290.0408 611.6206,296.338 " fill="none" id="Element-SimpleListImpl" style="stroke: #A80036; stroke-width: 1.0;"/><ellipse cx="605.912" cy="300.8634" fill="#FFFFFF" rx="8" ry="8" style="stroke: #A80036; stroke-width: 1.0;"/><line style="stroke: #A80036; stroke-width: 1.0;" x1="612.1811" x2="599.6429" y1="295.8936" y2="305.8331"/><line style="stroke: #A80036; stroke-width: 1.0;" x1="610.8817" x2="600.9423" y1="307.1325" y2="294.5943"/><!--link Element to Element--><path d="M719.235,172.5206 C738.3451,172.1553 754,176.6484 754,186 C754,193.0867 745.0097,197.3834 732.3384,198.8899 " fill="none" id="Element-Element" style="stroke: #A80036; stroke-width: 1.0;"/><polygon fill="#A80036" points="719.235,199.4794,725.4087,203.2057,731.2229,198.9401,725.0492,195.2138,719.235,199.4794" style="stroke: #A80036; stroke-width: 1.0;"/><text fill="#000000" font-family="sans-serif" font-size="13" lengthAdjust="spacingAndGlyphs" textLength="28" x="760" y="190.5669">next</text><!--link SimpleFilter to SimpleList--><path d="M119,80.7996 C119,99.6923 119,123.0143 119,142.8947 " fill="none" id="SimpleFilter-SimpleList" style="stroke: #A80036; stroke-width: 1.0; stroke-dasharray: 7.0,7.0;"/><polygon fill="#A80036" points="119,75.5949,115,84.5949,119,80.5949,123,84.5949,119,75.5949" style="stroke: #A80036; stroke-width: 1.0;"/><!--link SimpleIteratorImpl to SimpleListImpl--><path d="M502,210.2852 C502,231.2163 502,262.4146 502,290.5348 " fill="none" id="SimpleIteratorImpl-SimpleListImpl" style="stroke: #A80036; stroke-width: 1.0;"/><ellipse cx="502" cy="297.7558" fill="#FFFFFF" rx="8" ry="8" style="stroke: #A80036; stroke-width: 1.0;"/><line style="stroke: #A80036; stroke-width: 1.0;" x1="502" x2="502" y1="289.7558" y2="305.7558"/><line style="stroke: #A80036; stroke-width: 1.0;" x1="510" x2="494" y1="297.7558" y2="297.7558"/><!--
@startuml
interface SimpleFilter {
	+boolean include(Object item)
}

interface Iterable {
	+Iterator iterator()
}

interface Iterator {
	+boolean hasNext()
    +Object next()
}

interface SimpleList {
    +void add(Object item)
    +int size()
    +SimpleList filter(SimpleFilter filter)_
}

class SimpleListImpl implements SimpleList, Iterable {
	-head : Element
	+void add(Object item)
    +int size()
    +SimpleList filter(SimpleFilter filter)
}

-class SimpleIteratorImpl implements Iterator {
}

-class Element {
	-item: Object
    -next: Element
}

Element - -* SimpleListImpl : head
Element - -* Element : next
Element - -+ SimpleListImpl
SimpleFilter <.. SimpleList
SimpleIteratorImpl - -+ SimpleListImpl
@enduml

PlantUML version 1.2017.18(Fri Oct 06 18:56:32 CEST 2017)
(GPL source distribution)
Java Runtime: OpenJDK Runtime Environment
JVM: OpenJDK 64-Bit Server VM
Java Version: 1.8.0_144-b01
Operating System: Linux
OS Version: 4.13.11-1-ARCH
Default Encoding: UTF-8
Language: en
Country: US
--></g></svg>