<?xml version="1.0" encoding="UTF-8" standalone="no"?><svg xmlns="http://www.w3.org/2000/svg" xmlns:xlink="http://www.w3.org/1999/xlink" contentScriptType="application/ecmascript" contentStyleType="text/css" height="307px" preserveAspectRatio="none" style="width:792px;height:307px;" version="1.1" viewBox="0 0 792 307" width="792px" zoomAndPan="magnify"><defs><filter height="300%" id="f391j9ziy77fg" width="300%" x="-1" y="-1"><feGaussianBlur result="blurOut" stdDeviation="2.0"/><feColorMatrix in="blurOut" result="blurOut2" type="matrix" values="0 0 0 0 0 0 0 0 0 0 0 0 0 0 0 0 0 0 .4 0"/><feOffset dx="4.0" dy="4.0" in="blurOut2" result="blurOut3"/><feBlend in="SourceGraphic" in2="blurOut3" mode="normal"/></filter></defs><g><!--class SimpleFilter--><rect fill="#FEFECE" filter="url(#f391j9ziy77fg)" height="60.8047" id="SimpleFilter" style="stroke: #A80036; stroke-width: 1.5;" width="188" x="6" y="33.5"/><ellipse cx="59.75" cy="49.5" fill="#B4A7E5" rx="11" ry="11" style="stroke: #A80036; stroke-width: 1.0;"/><path d="M55.6719,45.2656 L55.6719,43.1094 L63.0625,43.1094 L63.0625,45.2656 L60.5938,45.2656 L60.5938,53.3438 L63.0625,53.3438 L63.0625,55.5 L55.6719,55.5 L55.6719,53.3438 L58.1406,53.3438 L58.1406,45.2656 L55.6719,45.2656 Z "/><text fill="#000000" font-family="sans-serif" font-size="12" font-style="italic" lengthAdjust="spacingAndGlyphs" textLength="72" x="80.25" y="53.6543">SimpleFilter</text><line style="stroke: #A80036; stroke-width: 1.5;" x1="7" x2="193" y1="65.5" y2="65.5"/><line style="stroke: #A80036; stroke-width: 1.5;" x1="7" x2="193" y1="73.5" y2="73.5"/><ellipse cx="17" cy="85.4023" fill="#84BE84" rx="3" ry="3" style="stroke: #038048; stroke-width: 1.0;"/><text fill="#000000" font-family="sans-serif" font-size="11" lengthAdjust="spacingAndGlyphs" textLength="162" x="26" y="87.7104">boolean include(Object item)</text><!--class Iterable<T>--><rect fill="#FEFECE" filter="url(#f391j9ziy77fg)" height="60.8047" id="Iterable&lt;T&gt;" style="stroke: #A80036; stroke-width: 1.5;" width="147" x="229.5" y="33.5"/><ellipse cx="262.05" cy="49.5" fill="#B4A7E5" rx="11" ry="11" style="stroke: #A80036; stroke-width: 1.0;"/><path d="M257.9719,45.2656 L257.9719,43.1094 L265.3625,43.1094 L265.3625,45.2656 L262.8938,45.2656 L262.8938,53.3438 L265.3625,53.3438 L265.3625,55.5 L257.9719,55.5 L257.9719,53.3438 L260.4406,53.3438 L260.4406,45.2656 L257.9719,45.2656 Z "/><text fill="#000000" font-family="sans-serif" font-size="12" font-style="italic" lengthAdjust="spacingAndGlyphs" textLength="76" x="279.95" y="53.6543">Iterable&lt;T&gt;</text><line style="stroke: #A80036; stroke-width: 1.5;" x1="230.5" x2="375.5" y1="65.5" y2="65.5"/><line style="stroke: #A80036; stroke-width: 1.5;" x1="230.5" x2="375.5" y1="73.5" y2="73.5"/><ellipse cx="240.5" cy="85.4023" fill="#84BE84" rx="3" ry="3" style="stroke: #038048; stroke-width: 1.0;"/><text fill="#000000" font-family="sans-serif" font-size="11" lengthAdjust="spacingAndGlyphs" textLength="121" x="249.5" y="87.7104">Iterator&lt;T&gt; iterator()</text><!--class Iterator<T>--><rect fill="#FEFECE" filter="url(#f391j9ziy77fg)" height="73.6094" id="Iterator&lt;T&gt;" style="stroke: #A80036; stroke-width: 1.5;" width="129" x="651.5" y="27"/><ellipse cx="676.4" cy="43" fill="#B4A7E5" rx="11" ry="11" style="stroke: #A80036; stroke-width: 1.0;"/><path d="M672.3219,38.7656 L672.3219,36.6094 L679.7125,36.6094 L679.7125,38.7656 L677.2438,38.7656 L677.2438,46.8438 L679.7125,46.8438 L679.7125,49 L672.3219,49 L672.3219,46.8438 L674.7906,46.8438 L674.7906,38.7656 L672.3219,38.7656 Z "/><text fill="#000000" font-family="sans-serif" font-size="12" font-style="italic" lengthAdjust="spacingAndGlyphs" textLength="75" x="692.6" y="47.1543">Iterator&lt;T&gt;</text><line style="stroke: #A80036; stroke-width: 1.5;" x1="652.5" x2="779.5" y1="59" y2="59"/><line style="stroke: #A80036; stroke-width: 1.5;" x1="652.5" x2="779.5" y1="67" y2="67"/><ellipse cx="662.5" cy="78.9023" fill="#84BE84" rx="3" ry="3" style="stroke: #038048; stroke-width: 1.0;"/><text fill="#000000" font-family="sans-serif" font-size="11" lengthAdjust="spacingAndGlyphs" textLength="103" x="671.5" y="81.2104">boolean hasNext()</text><ellipse cx="662.5" cy="91.707" fill="#84BE84" rx="3" ry="3" style="stroke: #038048; stroke-width: 1.0;"/><text fill="#000000" font-family="sans-serif" font-size="11" lengthAdjust="spacingAndGlyphs" textLength="43" x="671.5" y="94.0151">T next()</text><!--class SimpleList--><rect fill="#FEFECE" filter="url(#f391j9ziy77fg)" height="99.2188" id="SimpleList" style="stroke: #A80036; stroke-width: 1.5;" width="220" x="253" y="197"/><ellipse cx="327.75" cy="213" fill="#ADD1B2" rx="11" ry="11" style="stroke: #A80036; stroke-width: 1.0;"/><path d="M330.7188,218.6406 Q330.1406,218.9375 329.5,219.0859 Q328.8594,219.2344 328.1563,219.2344 Q325.6563,219.2344 324.3359,217.5859 Q323.0156,215.9375 323.0156,212.8125 Q323.0156,209.6875 324.3359,208.0313 Q325.6563,206.375 328.1563,206.375 Q328.8594,206.375 329.5078,206.5313 Q330.1563,206.6875 330.7188,206.9844 L330.7188,209.7031 Q330.0938,209.125 329.5,208.8516 Q328.9063,208.5781 328.2813,208.5781 Q326.9375,208.5781 326.25,209.6484 Q325.5625,210.7188 325.5625,212.8125 Q325.5625,214.9063 326.25,215.9766 Q326.9375,217.0469 328.2813,217.0469 Q328.9063,217.0469 329.5,216.7734 Q330.0938,216.5 330.7188,215.9219 L330.7188,218.6406 Z "/><text fill="#000000" font-family="sans-serif" font-size="12" lengthAdjust="spacingAndGlyphs" textLength="62" x="348.25" y="217.1543">SimpleList</text><line style="stroke: #A80036; stroke-width: 1.5;" x1="254" x2="472" y1="229" y2="229"/><rect fill="none" height="6" style="stroke: #C82930; stroke-width: 1.0;" width="6" x="261" y="237.9023"/><text fill="#000000" font-family="sans-serif" font-size="11" lengthAdjust="spacingAndGlyphs" textLength="106" x="273" y="243.2104">head : ListElement</text><line style="stroke: #A80036; stroke-width: 1.5;" x1="254" x2="472" y1="249.8047" y2="249.8047"/><ellipse cx="264" cy="261.707" fill="#84BE84" rx="3" ry="3" style="stroke: #038048; stroke-width: 1.0;"/><text fill="#000000" font-family="sans-serif" font-size="11" lengthAdjust="spacingAndGlyphs" textLength="121" x="273" y="264.0151">void add(Object item)</text><ellipse cx="264" cy="274.5117" fill="#84BE84" rx="3" ry="3" style="stroke: #038048; stroke-width: 1.0;"/><text fill="#000000" font-family="sans-serif" font-size="11" lengthAdjust="spacingAndGlyphs" textLength="67" x="273" y="276.8198">int getSize()</text><ellipse cx="264" cy="287.3164" fill="#84BE84" rx="3" ry="3" style="stroke: #038048; stroke-width: 1.0;"/><text fill="#000000" font-family="sans-serif" font-size="11" lengthAdjust="spacingAndGlyphs" textLength="194" x="273" y="289.6245">SimpleList filter(SimpleFilter filter)</text><!--class SimpleIterator--><rect fill="#FEFECE" filter="url(#f391j9ziy77fg)" height="48" id="SimpleIterator" style="stroke: #A80036; stroke-width: 1.5;" width="131" x="650.5" y="222.5"/><ellipse cx="665.5" cy="238.5" fill="#ADD1B2" rx="11" ry="11" style="stroke: #A80036; stroke-width: 1.0;"/><path d="M668.4688,244.1406 Q667.8906,244.4375 667.25,244.5859 Q666.6094,244.7344 665.9063,244.7344 Q663.4063,244.7344 662.0859,243.0859 Q660.7656,241.4375 660.7656,238.3125 Q660.7656,235.1875 662.0859,233.5313 Q663.4063,231.875 665.9063,231.875 Q666.6094,231.875 667.2578,232.0313 Q667.9063,232.1875 668.4688,232.4844 L668.4688,235.2031 Q667.8438,234.625 667.25,234.3516 Q666.6563,234.0781 666.0313,234.0781 Q664.6875,234.0781 664,235.1484 Q663.3125,236.2188 663.3125,238.3125 Q663.3125,240.4063 664,241.4766 Q664.6875,242.5469 666.0313,242.5469 Q666.6563,242.5469 667.25,242.2734 Q667.8438,242 668.4688,241.4219 L668.4688,244.1406 Z "/><rect fill="#F24D5C" height="6" style="stroke: #C82930; stroke-width: 1.0;" width="6" x="681.5" y="235"/><text fill="#000000" font-family="sans-serif" font-size="12" lengthAdjust="spacingAndGlyphs" textLength="88" x="690.5" y="242.6543">SimpleIterator</text><line style="stroke: #A80036; stroke-width: 1.5;" x1="651.5" x2="780.5" y1="254.5" y2="254.5"/><line style="stroke: #A80036; stroke-width: 1.5;" x1="651.5" x2="780.5" y1="262.5" y2="262.5"/><!--class ListElement--><rect fill="#FEFECE" filter="url(#f391j9ziy77fg)" height="112.0234" id="ListElement" style="stroke: #A80036; stroke-width: 1.5;" width="147" x="411.5" y="8"/><ellipse cx="440.9" cy="24" fill="#ADD1B2" rx="11" ry="11" style="stroke: #A80036; stroke-width: 1.0;"/><path d="M443.8688,29.6406 Q443.2906,29.9375 442.65,30.0859 Q442.0094,30.2344 441.3063,30.2344 Q438.8063,30.2344 437.4859,28.5859 Q436.1656,26.9375 436.1656,23.8125 Q436.1656,20.6875 437.4859,19.0313 Q438.8063,17.375 441.3063,17.375 Q442.0094,17.375 442.6578,17.5313 Q443.3063,17.6875 443.8688,17.9844 L443.8688,20.7031 Q443.2438,20.125 442.65,19.8516 Q442.0563,19.5781 441.4313,19.5781 Q440.0875,19.5781 439.4,20.6484 Q438.7125,21.7188 438.7125,23.8125 Q438.7125,25.9063 439.4,26.9766 Q440.0875,28.0469 441.4313,28.0469 Q442.0563,28.0469 442.65,27.7734 Q443.2438,27.5 443.8688,26.9219 L443.8688,29.6406 Z "/><rect fill="#F24D5C" height="6" style="stroke: #C82930; stroke-width: 1.0;" width="6" x="460.1" y="20.5"/><text fill="#000000" font-family="sans-serif" font-size="12" lengthAdjust="spacingAndGlyphs" textLength="72" x="469.1" y="28.1543">ListElement</text><line style="stroke: #A80036; stroke-width: 1.5;" x1="412.5" x2="557.5" y1="40" y2="40"/><rect fill="none" height="6" style="stroke: #C82930; stroke-width: 1.0;" width="6" x="419.5" y="48.9023"/><text fill="#000000" font-family="sans-serif" font-size="11" lengthAdjust="spacingAndGlyphs" textLength="69" x="431.5" y="54.2104">item: Object</text><rect fill="none" height="6" style="stroke: #C82930; stroke-width: 1.0;" width="6" x="419.5" y="61.707"/><text fill="#000000" font-family="sans-serif" font-size="11" lengthAdjust="spacingAndGlyphs" textLength="98" x="431.5" y="67.0151">next: ListElement</text><line style="stroke: #A80036; stroke-width: 1.5;" x1="412.5" x2="557.5" y1="73.6094" y2="73.6094"/><rect fill="#F24D5C" height="6" style="stroke: #C82930; stroke-width: 1.0;" width="6" x="419.5" y="82.5117"/><text fill="#000000" font-family="sans-serif" font-size="11" lengthAdjust="spacingAndGlyphs" textLength="121" x="431.5" y="87.8198">void add(Object item)</text><ellipse cx="422.5" cy="98.3164" fill="#84BE84" rx="3" ry="3" style="stroke: #038048; stroke-width: 1.0;"/><text fill="#000000" font-family="sans-serif" font-size="11" lengthAdjust="spacingAndGlyphs" textLength="91" x="431.5" y="100.6245">Object getItem()</text><ellipse cx="422.5" cy="111.1211" fill="#84BE84" rx="3" ry="3" style="stroke: #038048; stroke-width: 1.0;"/><text fill="#000000" font-family="sans-serif" font-size="11" lengthAdjust="spacingAndGlyphs" textLength="121" x="431.5" y="113.4292">ListElement getNext()</text><!--link Iterable<T> to SimpleList--><path d="M319.295,114.02 C327.857,139.778 338.316,171.242 346.856,196.9327 " fill="none" id="Iterable&lt;T&gt;-SimpleList" style="stroke: #A80036; stroke-width: 1.0;"/><polygon fill="none" points="312.574,115.993,312.908,94.806,325.859,111.577,312.574,115.993" style="stroke: #A80036; stroke-width: 1.0;"/><!--link Iterator<T> to SimpleIterator--><path d="M716,121.126 C716,155.224 716,196.9448 716,222.355 " fill="none" id="Iterator&lt;T&gt;-SimpleIterator" style="stroke: #A80036; stroke-width: 1.0;"/><polygon fill="none" points="709,121.093,716,101.093,723,121.093,709,121.093" style="stroke: #A80036; stroke-width: 1.0;"/><!--link ListElement to SimpleList--><path d="M440.408,130.974 C425.687,152.754 409.589,176.571 395.904,196.8176 " fill="none" id="ListElement-SimpleList" style="stroke: #A80036; stroke-width: 1.0;"/><polygon fill="#A80036" points="447.733,120.137,441.059,122.8678,441.0128,130.0788,447.6868,127.348,447.733,120.137" style="stroke: #A80036; stroke-width: 1.0;"/><text fill="#000000" font-family="sans-serif" font-size="13" lengthAdjust="spacingAndGlyphs" textLength="32" x="425" y="163.0669">head</text><!--link ListElement to ListElement--><path d="M571.579,47.963 C584.643,50.431 593.5,55.777 593.5,64 C593.5,74.74 578.391,80.572 558.531,81.495 " fill="none" id="ListElement-ListElement" style="stroke: #A80036; stroke-width: 1.0;"/><polygon fill="#A80036" points="558.531,46.505,564.05,51.1462,570.4569,47.8368,564.9379,43.1956,558.531,46.505" style="stroke: #A80036; stroke-width: 1.0;"/><text fill="#000000" font-family="sans-serif" font-size="13" lengthAdjust="spacingAndGlyphs" textLength="28" x="599.5" y="68.5669">next</text></g></svg>